<svg width="1994" height="400" viewBox="0 0 1994 400" fill="none" xmlns="http://www.w3.org/2000/svg">
<path d="M172.146 10.6821L118.069 184.258L64.0203 10.6821H0V10.8117L90.1532 290.617H146.013L236.195 10.6821H172.146Z" fill="#002233"/>
<path d="M1053.31 290.646H1005.98C960.189 290.646 922.911 254.799 922.911 210.747C922.911 210.747 922.896 201.72 922.94 200.67C924.287 166.68 952.681 133.741 987.54 125.651L1075.46 104.431V85.3555C1075.46 74.7023 1066.72 65.9782 1055.97 65.9782H943.97V10.6821H1055.97C1101.07 10.6821 1136.41 45.5499 1136.41 90.0487V210.733C1136.39 254.799 1099.13 290.646 1053.31 290.646ZM1075.45 162.39L1001.4 180.428C993.149 182.242 984.394 188.692 983.844 201.404C983.829 202.383 983.844 210.718 983.844 210.718C983.844 223.819 994.178 235.293 1005.96 235.293H1053.3C1065.3 235.293 1075.43 224.035 1075.43 210.718V162.39H1075.45Z" fill="#002233"/>
<path d="M1563.81 290.646H1516.47C1470.68 290.646 1433.39 254.799 1433.39 210.747C1433.39 210.747 1433.38 201.72 1433.42 200.67C1434.77 166.68 1463.18 133.741 1498.02 125.651L1585.93 104.431V85.3555C1585.93 74.7023 1577.19 65.9782 1566.43 65.9782H1454.44V10.6821H1566.43C1611.54 10.6821 1646.87 45.5499 1646.87 90.0487V210.733C1646.86 254.799 1609.61 290.646 1563.81 290.646ZM1585.93 162.39L1511.88 180.428C1503.64 182.242 1494.88 188.692 1494.32 201.404C1494.31 202.383 1494.32 210.718 1494.32 210.718C1494.32 223.819 1504.67 235.293 1516.46 235.293H1563.79C1575.78 235.293 1585.91 224.035 1585.91 210.718V162.39H1585.93Z" fill="#FFA101"/>
<path d="M597.286 10.6821C552.181 10.6821 516.844 45.5499 516.844 90.0487V290.617H577.777V85.3555C577.777 74.6735 586.532 65.9782 597.272 65.9782H660.698V10.6821H597.286Z" fill="#002233"/>
<path d="M809.059 290.646H683.903V235.336H809.059C820.843 235.336 831.177 223.833 831.177 210.747C831.177 194.393 820.698 188.174 811.886 185.841L743.604 168.638C704.122 158.489 678.627 127.882 678.627 90.567C678.627 46.5288 715.906 10.6821 761.707 10.6821H876.341V65.9782H761.707C749.923 65.9782 739.589 77.4808 739.589 90.567C739.589 102.084 746.503 111.701 756.794 114.45L827.206 132.719C866.006 142.638 892.096 174.008 892.096 210.733C892.11 254.799 854.86 290.646 809.059 290.646Z" fill="#002233"/>
<path d="M1246.98 400H1186.05V10.668H1318.57C1363.96 10.668 1399.53 45.8092 1399.53 90.596V180.443C1399.53 241.195 1349.76 290.618 1288.57 290.618H1247V400H1246.98ZM1246.98 235.336H1288.55C1316.13 235.336 1338.57 213.051 1338.57 185.669V85.9028C1338.57 74.9185 1329.57 66.0216 1318.55 66.0216H1246.98V235.336Z" fill="#FFA101"/>
<path d="M1797.99 400H1728.06V344.661H1799.03C1826.62 344.661 1849.04 322.404 1849.04 295.008V276.768C1834.12 285.622 1815.93 290.617 1797.47 290.617H1777.47C1732.07 290.617 1696.53 255.519 1696.53 210.733V10.6821H1757.46V215.944C1757.46 226.813 1766.26 235.321 1777.47 235.321H1797.47C1825.92 235.321 1849.04 213.741 1849.04 187.223V10.6821H1910V291.38C1910.01 351.254 1859.76 400 1797.99 400Z" fill="#FFA101"/>
<path d="M467.173 100.673C467.216 99.6364 467.202 90.5811 467.202 90.5811C467.202 46.5286 429.923 10.6963 384.122 10.6963H336.799C290.983 10.6963 253.719 46.5142 253.719 90.5811V180.457C253.719 241.209 303.259 290.632 364.164 290.632H456.694V235.336H364.164C340.727 235.336 319.768 218.909 314.695 196.897L402.602 175.677C437.417 167.572 465.796 134.648 467.173 100.673ZM388.702 120.871L314.652 138.924V90.5667C314.652 77.2502 324.783 65.9923 336.77 65.9923H384.093C395.877 65.9923 406.211 77.4661 406.211 90.5667C406.211 90.5667 406.254 98.9166 406.24 99.8955C405.704 112.607 396.906 119.043 388.702 120.871Z" fill="#002233"/>
<path d="M1925.36 33.8168C1925.36 29.1524 1926.26 24.776 1928.06 20.673C1929.86 16.5845 1932.31 12.9998 1935.38 9.94781C1938.45 6.88141 1942.06 4.46284 1946.18 2.6777C1950.29 0.892568 1954.7 0 1959.41 0C1964.11 0 1968.51 0.892568 1972.63 2.6777C1976.75 4.46284 1980.35 6.89581 1983.43 9.94781C1986.5 13.0142 1988.95 16.5845 1990.75 20.673C1992.54 24.7616 1993.44 29.138 1993.44 33.8168C1993.44 38.4812 1992.54 42.8577 1990.75 46.9462C1988.95 51.0347 1986.5 54.6194 1983.43 57.6714C1980.34 60.7378 1976.75 63.1564 1972.63 64.9415C1968.51 66.7267 1964.11 67.6192 1959.41 67.6192C1954.71 67.6192 1950.31 66.7267 1946.18 64.9415C1942.06 63.1564 1938.45 60.7234 1935.38 57.6714C1932.29 54.605 1929.86 51.0347 1928.06 46.9462C1926.26 42.8721 1925.36 38.4812 1925.36 33.8168ZM1931.41 33.8168C1931.41 37.6318 1932.13 41.2453 1933.61 44.6284C1935.07 48.0259 1937.07 50.9771 1939.61 53.4965C1942.15 56.0158 1945.12 58.0025 1948.54 59.4565C1951.96 60.9106 1955.58 61.6448 1959.44 61.6448C1963.29 61.6448 1966.92 60.9106 1970.32 59.4565C1973.75 58.0025 1976.72 56.0158 1979.25 53.4965C1981.79 50.9771 1983.79 48.0259 1985.25 44.6284C1986.72 41.2309 1987.46 37.6318 1987.46 33.8168C1987.46 30.0018 1986.73 26.3883 1985.25 22.9908C1983.79 19.5933 1981.79 16.6421 1979.25 14.1227C1976.72 11.6034 1973.75 9.6167 1970.32 8.16268C1966.9 6.70866 1963.28 5.97445 1959.44 5.97445C1955.6 5.97445 1951.96 6.70866 1948.54 8.16268C1945.12 9.6167 1942.15 11.6034 1939.61 14.1227C1937.07 16.6421 1935.07 19.5933 1933.61 22.9908C1932.13 26.4027 1931.41 30.0018 1931.41 33.8168ZM1946.32 14.2811H1961.34C1966.03 14.2811 1969.5 15.2744 1971.73 17.2755C1973.96 19.2766 1975.06 22.1558 1975.06 25.9133C1975.06 29.3108 1974.19 31.8589 1972.44 33.5433C1970.69 35.242 1968.48 36.2354 1965.83 36.5377L1975.9 52.9062H1968.4L1958.7 37.0848H1953.48V52.9062H1946.34V14.2811H1946.32ZM1953.47 31.0959H1958.69C1959.79 31.0959 1960.89 31.0527 1961.98 30.9663C1963.08 30.88 1964.06 30.6496 1964.95 30.2897C1965.83 29.9298 1966.56 29.3828 1967.09 28.6486C1967.64 27.9143 1967.92 26.921 1967.92 25.6541C1967.92 24.3873 1967.64 23.3795 1967.09 22.6597C1966.54 21.9255 1965.83 21.3928 1964.95 21.0185C1964.06 20.6586 1963.08 20.4427 1961.98 20.3851C1960.87 20.3275 1959.77 20.2987 1958.69 20.2987H1953.47V31.0959Z" fill="#FFA101"/>
</svg>
